<?xml version="1.0" encoding="UTF-8"?>
<svg id="_レイヤー_1" data-name="レイヤー_1" xmlns="http://www.w3.org/2000/svg" viewBox="0 0 443.67 356.3">
  <defs>
    <style>
      .cls-1 {
        fill: #fff;
      }
    </style>
  </defs>
  <g>
    <path d="M343.25,199.77c-18.55,38.95-47.16,65.91-88.69,78.59-29.07,8.88-57.83,8.28-86.23-2.07-36.94-13.47-63.83-38.37-81.28-73.53-11.1-22.38-15.99-46.06-13.43-70.93,3.12-30.24,14.02-57.45,33.28-81.2C127.46,25.28,154.08,10.11,185.68,3.19c26.41-5.78,52.34-3.62,77.53,5.82,30.61,11.46,54.36,31.34,70.23,60.06,4.52,8.18,7.97,16.96,11.78,25.52.64,1.43,1.32,1.93,2.85,1.88,3.89-.14,7.8-.24,11.69-.1,6.73.25,9.83,3.49,9.68,10.26-.14,6.49-.64,12.98-.8,19.47-.03,1.34.74,2.7,1.11,4.06.3,1.14.79,2.29.79,3.44-.02,9.9.64,19.88-.46,29.66-1.02,9.09-1.11,18.07-.93,27.14.13,6.79-2.38,9.24-9.16,9.35-5.59.09-11.19.02-16.74.02ZM332.05,95.41c-1.5-3.5-3.28-7.13-4.63-10.92-1.45-4.08-4.95-7.65-3.42-12.57.1-.32-.1-.82-.31-1.12-5.6-8.01-10.27-16.96-17.06-23.8-12.31-12.39-26.89-21.93-43.34-28.38-35.02-13.72-69.94-13.36-104.09,2.1-35.6,16.11-58.15,44.34-70.72,80.89-9.27,26.95-10.01,54.04-.61,81.16,7.46,21.51,18.93,40.49,35.8,55.95,3.36,3.08,7.29,5.58,11.17,8,1.63,1.01,3.99.79,5.71,1.72,3.51,1.89,6.78,4.23,10.21,6.28,13.55,8.08,28.32,12.85,43.67,16,3.58.73,7.23,1.12,10.85,1.66-.02.11-.04.22-.07.33-2.41.12-4.83.25-8.06.42,6.46,3.04,23.28,3.35,32.59,1.03-.91-.67-1.92-1.4-3.39-2.47,28.26-3.98,53.37-13.99,74.16-33.64l.74,1.18c-3.46,3.28-6.93,6.55-10.39,9.83.21.22.42.44.62.66,7.37-5.92,14.27-12.37,20.61-19.22-.25-1.18-.37-2.3-.03-3.26.4-1.1,1.17-2.08,1.84-3.07,3.84-5.71,7.75-11.38,11.53-17.14,1.45-2.21,2.6-4.62,4.1-7.3.26,1.37.42,2.22.73,3.86,1.29-1.95,2.12-3.22,3.15-4.78-.94-.07-1.41-.11-1.89-.14-5.68-.38-7.85-3.06-7-8.66.9-5.93,1.83-11.85,2.69-17.78.37-2.53,1.65-3.63,4.26-3.47,2.66.16,5.34.03,8.38.03.4-5.57.78-10.89,1.15-16.19-6.14-.79-8.11-2.86-7.81-7.91.06-.95.3-2.52.83-2.7,2.05-.71,4.25-.97,6.23-1.37v-11.83c-2.36,0-4.36.12-6.34-.02-6.19-.44-6.05-.49-6.52-6.53-.45-5.78-1.27-11.52-1.85-17.29-.22-2.18-1.06-4.92-.1-6.43.98-1.54,3.83-1.89,6.6-3.08ZM346.16,190.92s0,.1,0,.15c4.1,0,8.2-.09,12.29.04,2.1.06,2.74-.52,2.58-2.74-.3-4.17-.42-8.39-.19-12.56.15-2.77-.9-3.73-3.39-3.48-2.48.25-4.94.81-7.42.97-4.38.28-8.78.34-13.17.52-3.84.15-4.35.58-4.59,4.27-.24,3.69-.3,7.39-.51,11.08-.11,1.82.58,2.5,2.43,2.37,3.98-.28,7.98-.41,11.97-.61ZM361.45,122.54c0-5.57-.17-10.54.07-15.5.13-2.66-.74-3.58-3.32-3.59-6.38-.02-12.75-.23-19.13-.33-1.39-.02-2.78.11-4.17.19-1.94.12-2.79.94-2.49,3.09.43,3.15.6,6.35.74,9.54.25,5.66.84,6.23,6.58,5.87.5-.03,1.01-.02,1.49-.14,6.53-1.63,13.01-1.2,20.24.88ZM362.94,163.27c0-9.47.09-18.81-.06-28.15-.04-2.58-2.16-3.88-4.46-4.03-2.76-.19-5.56.14-8.33.31-2.04.12-2.58,1.25-2.39,3.25.26,2.77.22,5.57.23,8.36.03,6.73,0,13.45,0,20.27h15ZM314.14,227.34c.3.23.6.46.89.68,4.03-6.02,8.09-12.02,12.05-18.08.29-.44-.08-1.31-.15-1.98-.23,0-.47,0-.7-.01-4.03,6.46-8.06,12.93-12.1,19.39ZM182.06,270.89c-5.96-3.97-12.92-6.35-15.82-5.41,5.75,1.97,10.78,3.69,15.82,5.41ZM237.93,272.41c.03.21.06.43.08.64l12.14-2.9c-.07-.28-.13-.55-.2-.83-4.01,1.03-8.02,2.06-12.03,3.09ZM285.76,253.04c-.26-.32-.52-.65-.77-.97l-5.58,3.99c.24.33.48.65.72.98,1.88-1.33,3.76-2.67,5.63-4ZM273.04,260.8c-.18-.37-.36-.75-.54-1.12-1.95,1.07-3.9,2.13-5.84,3.2.14.27.29.55.43.82,1.99-.97,3.97-1.93,5.96-2.9ZM339.85,144.38c-1.37.5-2.72,1-4.07,1.5.16.34.43.99.45.98,1.29-.5,2.55-1.04,3.81-1.6.02,0-.04-.18-.2-.88Z"/>
    <path class="cls-1" d="M332.05,95.41c-2.77,1.19-5.63,1.54-6.6,3.08-.96,1.52-.12,4.25.1,6.43.58,5.77,1.39,11.51,1.85,17.29.47,6.04.34,6.09,6.52,6.53,1.98.14,3.98.02,6.34.02v11.83c-1.99.4-4.19.66-6.23,1.37-.54.19-.78,1.75-.83,2.7-.3,5.05,1.67,7.11,7.81,7.91-.38,5.3-.76,10.62-1.15,16.19-3.04,0-5.72.12-8.38-.03-2.61-.15-3.9.94-4.26,3.47-.86,5.93-1.79,11.85-2.69,17.78-.85,5.6,1.32,8.28,7,8.66.48.03.95.07,1.89.14-1.03,1.56-1.87,2.83-3.15,4.78-.31-1.64-.47-2.49-.73-3.86-1.49,2.68-2.65,5.09-4.1,7.3-3.78,5.76-7.69,11.43-11.53,17.14-.67.99-1.44,1.97-1.84,3.07-.34.95-.22,2.08.03,3.26-6.34,6.85-13.24,13.3-20.61,19.22-.21-.22-.42-.44-.62-.66,3.46-3.28,6.93-6.55,10.39-9.83l-.74-1.18c-20.79,19.66-45.9,29.66-74.16,33.64,1.47,1.07,2.48,1.81,3.39,2.47-9.31,2.32-26.13,2.01-32.59-1.03,3.24-.17,5.65-.29,8.06-.42.02-.11.04-.22.07-.33-3.62-.54-7.27-.93-10.85-1.66-15.35-3.14-30.12-7.92-43.67-16-3.43-2.05-6.7-4.39-10.21-6.28-1.72-.92-4.08-.7-5.71-1.72-3.88-2.42-7.82-4.92-11.17-8-16.87-15.45-28.34-34.43-35.8-55.95-9.4-27.13-8.66-54.21.61-81.16,12.57-36.55,35.12-64.77,70.72-80.89,34.15-15.46,69.07-15.82,104.09-2.1,16.46,6.45,31.03,15.99,43.34,28.38,6.79,6.84,11.46,15.79,17.06,23.8.21.31.41.81.31,1.12-1.53,4.92,1.97,8.49,3.42,12.57,1.35,3.78,3.12,7.41,4.63,10.92ZM112.91,86.6c-.63,1.31-1.37,2.58-1.87,3.93-3.15,8.51-7.27,16.83-9.1,25.62-2.19,10.49-3.09,21.38-3.3,32.12-.28,14.56,2.48,28.63,9.22,41.89,7.51,14.76,17.86,27.13,29.83,38.32,13.32,12.47,28.93,21.12,46.42,25.91,31.82,8.7,61.96,4.17,90.18-12.93,11.73-7.11,20.76-17.17,29.45-27.51,13.52-16.08,20.71-34.99,23.5-55.58,1.67-12.33.55-24.55-1.58-36.93-4.1-23.8-14.94-43.99-30.65-61.69-13.78-15.52-30.73-26.36-51.36-30.74-1.07-.23-2.14-.5-3.19-.8-.92-.26-1.82-.6-3.39-1.12,9.88.32,18.42,2.82,26.58,6.74-6.69-5.08-35.24-12.22-42.02-10.68.12.68.24,1.36.41,2.31-4.29,0-8.28.01-12.28-.01-.57,0-1.63-.17-1.64-.31-.15-2.78-2.39-1.81-3.55-1.66-6.32.8-12.64,1.64-18.88,2.89-10.04,2.02-19.66,5.41-28.36,10.91-6.32,4-12.38,8.41-18.45,12.79-1.71,1.23-3.04,2.98-4.85,4.8,1.26.08,1.9.12,2.19.14-7.45,9.26-14.92,18.56-22.39,27.85-.12-.08-.24-.16-.35-.24,2.81-4.26,5.63-8.52,8.44-12.78-.28-.16-.56-.31-.83-.47-10.07,13.2-17.28,27.76-20.55,44.2,3.27-9.36,5.48-19.2,12.37-26.97ZM89.84,139.03c-3.97-.02-6.23,2.24-6.3,6.29-.07,4.58,2.09,7.04,6.19,7.03,3.55,0,5.97-2.9,5.95-7.12-.02-3.52-2.53-6.18-5.85-6.2ZM214.5,23.78c4.07.09,6.76-2.63,6.87-6.98.08-3.03-3.34-6.01-6.92-6.03-3.26-.02-6.6,3.2-6.66,6.43-.07,3.55,2.93,6.5,6.71,6.59ZM214.53,261.3c-3.31-.04-6.57,3.25-6.7,6.76-.12,3.11,3.54,6.47,7,6.45,3.61-.02,6.55-3.34,6.63-7.48.06-3.33-2.78-5.69-6.93-5.74ZM302.54,234.64c3.46,0,6.88-3.47,6.87-6.97,0-3.2-3.16-6.55-6.14-6.52-3.6.03-7.03,3.69-7.06,7.53-.02,2.95,3.19,5.98,6.33,5.97ZM296.73,54.36c-.04,4.21,3.34,7.9,7.28,7.94,3.26.04,5.66-2.68,5.63-6.39-.03-3.48-3.47-7.03-6.81-7.02-3.7.01-6.08,2.14-6.11,5.46ZM132.19,55.88c.09-3.56-1.95-6.29-4.8-6.44-3.89-.2-7.78,3.5-7.85,7.45-.06,3.66,2.09,6.14,5.36,6.2,3.71.06,7.19-3.37,7.28-7.21ZM125.02,221.94c-3.25.05-5.44,2.39-5.46,5.83-.02,3.49,2.96,6.62,6.34,6.65,3.42.03,6.13-2.45,6.12-5.61-.01-3.4-3.6-6.92-7-6.88ZM98.39,121.1l-.65-.14c-.51,3.31-1.01,6.62-1.52,9.92.18.03.37.05.55.08.54-3.29,1.08-6.58,1.62-9.87Z"/>
    <path class="cls-1" d="M346.16,190.92c-3.99.19-7.99.33-11.97.61-1.85.13-2.54-.55-2.43-2.37.21-3.69.27-7.39.51-11.08.24-3.69.75-4.12,4.59-4.27,4.39-.18,8.79-.24,13.17-.52,2.48-.16,4.94-.72,7.42-.97,2.49-.25,3.54.72,3.39,3.48-.23,4.17-.12,8.39.19,12.56.16,2.22-.48,2.81-2.58,2.74-4.09-.12-8.19-.04-12.29-.04,0-.05,0-.1,0-.15Z"/>
    <path class="cls-1" d="M361.45,122.54c-7.24-2.08-13.71-2.51-20.24-.88-.48.12-.99.11-1.49.14-5.74.37-6.33-.21-6.58-5.87-.14-3.19-.31-6.38-.74-9.54-.29-2.15.56-2.96,2.49-3.09,1.39-.09,2.78-.21,4.17-.19,6.38.1,12.75.31,19.13.33,2.59,0,3.45.93,3.32,3.59-.24,4.95-.07,9.93-.07,15.5Z"/>
    <path class="cls-1" d="M362.94,163.27h-15c0-6.81.02-13.54,0-20.27-.01-2.79.03-5.59-.23-8.36-.19-1.99.35-3.12,2.39-3.25,2.78-.17,5.58-.5,8.33-.31,2.31.16,4.42,1.46,4.46,4.03.14,9.34.06,18.69.06,28.15Z"/>
    <path class="cls-1" d="M314.14,227.34c4.03-6.46,8.06-12.93,12.1-19.39.23,0,.47,0,.7.01.06.67.43,1.54.15,1.98-3.96,6.06-8.02,12.07-12.05,18.08-.3-.23-.6-.46-.89-.68Z"/>
    <path class="cls-1" d="M182.06,270.89c-5.03-1.72-10.06-3.44-15.82-5.41,2.9-.94,9.86,1.45,15.82,5.41Z"/>
    <path class="cls-1" d="M237.93,272.41c4.01-1.03,8.02-2.06,12.03-3.09.07.28.13.55.2.83l-12.14,2.9c-.03-.21-.06-.43-.08-.64Z"/>
    <path class="cls-1" d="M285.76,253.04c-1.88,1.33-3.76,2.67-5.63,4-.24-.33-.48-.65-.72-.98l5.58-3.99c.26.32.52.65.77.97Z"/>
    <path class="cls-1" d="M273.04,260.8c-1.99.97-3.97,1.93-5.96,2.9-.14-.27-.29-.55-.43-.82,1.95-1.07,3.9-2.13,5.84-3.2.18.37.36.75.54,1.12Z"/>
    <path class="cls-1" d="M339.85,144.38c.16.7.21.87.2.88-1.26.56-2.53,1.1-3.81,1.6-.02,0-.29-.64-.45-.98,1.35-.5,2.7-.99,4.07-1.5Z"/>
    <path d="M112.91,86.6c-6.89,7.77-9.1,17.61-12.37,26.97,3.26-16.44,10.48-31,20.55-44.2.28.16.56.31.83.47-2.81,4.26-5.63,8.52-8.44,12.78.12.08.24.16.35.24,7.47-9.29,14.94-18.59,22.39-27.85-.29-.02-.93-.06-2.19-.14,1.81-1.82,3.14-3.57,4.85-4.8,6.07-4.38,12.13-8.79,18.45-12.79,8.69-5.5,18.31-8.89,28.36-10.91,6.24-1.26,12.56-2.09,18.88-2.89,1.16-.15,3.39-1.12,3.55,1.66,0,.14,1.07.31,1.64.31,3.99.03,7.99.01,12.28.01-.17-.95-.29-1.63-.41-2.31,6.77-1.54,35.33,5.6,42.02,10.68-8.17-3.92-16.7-6.41-26.58-6.74,1.57.52,2.47.86,3.39,1.12,1.06.3,2.12.58,3.19.8,20.63,4.38,37.58,15.21,51.36,30.74,15.71,17.7,26.55,37.88,30.65,61.69,2.13,12.38,3.25,24.59,1.58,36.93-2.78,20.59-9.98,39.5-23.5,55.58-8.69,10.34-17.72,20.4-29.45,27.51-28.22,17.1-58.37,21.63-90.18,12.93-17.49-4.78-33.1-13.44-46.42-25.91-11.96-11.19-22.32-23.56-29.83-38.32-6.74-13.26-9.51-27.33-9.22-41.89.21-10.74,1.11-21.63,3.3-32.12,1.83-8.79,5.95-17.11,9.1-25.62.5-1.36,1.24-2.62,1.87-3.93ZM253.46,65.31c-3.27,1.36-5.04.22-6.27-2.24-2.86-5.71-5.72-11.43-8.59-17.15-.54-1.07-.93-2.32-1.75-3.11-.66-.64-1.86-.7-2.83-1.02-.17.8-.64,1.68-.45,2.39.54,2.12,1.23,4.21,2.04,6.25,2.06,5.16,4.21,10.28,6.34,15.43-4.03,1.17-4.94,1.03-6.15-1.66-2.62-5.83-5.36-11.63-7.41-17.66-1.09-3.21-2.56-3.62-5.57-3.5-6.85.27-13.72-.05-20.59.02-.78,0-2,.86-2.27,1.59-2.27,6.17-4.45,12.38-6.49,18.64-1.32,4.06-1.83,4.38-6.36,2.36.69-2.19,1.35-4.45,2.13-6.67,1.61-4.62,3.38-9.19,4.83-13.85.28-.89-.33-2.75-1.04-3.1-1.63-.78-2.97.03-3.71,1.88-2.56,6.38-5.15,12.75-7.86,19.06-1.58,3.68-2.86,4-6.7,1.92,3.49-7.17,6.98-14.37,10.49-21.59-3.22-1.58-4.92-.69-6.15,2.03-1.23,2.72-2.8,5.29-4.19,7.94-2.32,4.42-4.63,8.85-6.89,13.3-.91,1.78-1.08,3.46,1.64,3.47,9.48.05,18.97.02,28.66.02,1.54-8.91,4.32-17.5,16.2-17.13,2.91.09,6.27,1.15,8.56,2.9,4.6,3.51,6.29,8.79,6.06,14.28h32.54c0-.88.11-1.23-.02-1.45-4.52-8.1-9.01-16.23-13.65-24.27-.9-1.55-2.5-1.78-4.52-.49,3.33,7.16,6.61,14.23,9.96,21.43ZM174.45,41.58c-2.94-.98-4.41.13-5.63,2.15-3.98,6.58-7.72,13.33-12.18,19.58-3,4.21-5.78,8-4.13,13.52.44,1.46-.03,3.17-.02,4.77,0,.73.13,1.45.21,2.24.58-.08.88-.08,1.15-.17,9.4-3.35,13.95-1.86,19.56,6.23.58.84,1.83,1.65,2.81,1.7,6.28.29,12.57.37,18.86.5,1.32.03,3.27-.55,2.8,1.76-.37,1.82,1.62,5.15-2.53,5.07-4.69-.1-9.38-.32-14.07-.52-1.92-.08-3.84-.26-5.76-.39-.12.31-.24.61-.36.92,6.95,6.69,13.9,13.38,20.46,19.7,2.76-1.2,4.78-2.35,6.95-2.93,1.76-.47,2.09-1.27,2.12-2.91.15-9.19.42-18.38.65-27.56.1-3.95-4.01-7.91-8-7.9-6.69.02-13.42.31-20.06-.3-5.59-.51-11.24-1.64-16.56-3.41-3.91-1.3-3.86-3.3-1.63-6.74,4.72-7.28,9.27-14.67,13.86-22.04.56-.9.9-1.94,1.49-3.25ZM255.42,41.5c-.26.33-.52.67-.79,1,.57,1.57.93,3.26,1.73,4.7,3.87,6.98,7.8,13.93,11.84,20.81,1.99,3.39,1.82,4.87-1.88,6.13-3.37,1.15-6.94,2.16-10.47,2.38-8.77.53-17.57.57-26.35.8-2.73.07-6.79,3.68-6.8,6.31-.03,10.1.01,20.19.14,30.29,0,.75.76,1.8,1.45,2.19,2.04,1.14,4.22,2.03,6.38,3.02,7.03-6.57,14.23-13.3,22-20.56-1.66-.09-2.42-.16-3.18-.16-5.09-.02-10.19-.2-15.27.02-3.23.14-4.34-1.18-4.04-4.18.08-.77.01-1.54.01-2.59,1.44,0,2.61.02,3.78,0,5.29-.08,10.58-.22,15.88-.24,1.89,0,3.11-.74,4.15-2.31,3.36-5.04,8.15-7.57,14.21-7.43,1.84.04,3.66.54,5.65.85.12-.57.31-1.13.36-1.7.49-6.1.83-11.81-3.49-17.36-4.87-6.27-8.36-13.6-12.58-20.38-.49-.79-1.81-1.07-2.74-1.59ZM239.71,147.28c-.01-14.56-11.93-26.86-25.92-26.75-15.1.12-26.38,11.56-26.36,26.75.02,14.28,11.74,25.63,26.51,25.68,14.12.05,25.79-11.58,25.77-25.68ZM205.73,237.53c-.87-.66-1.68-1.23-2.43-1.86-6.23-5.24-6.09-17.42.16-22.37.79-.63,1.18-1.77,1.75-2.67-1.03-.03-2.13-.31-3.07-.04-10.36,3.01-20.7,2.73-31.08.15-1.11-.28-2.71-.15-3.58.48-3.58,2.61-7.34,2.84-11.38,1.54-1.08-.35-2.2-.56-3.51-.89,0,3.3.09,6.19-.02,9.07-.28,7.82,3.76,12.84,10.52,15.81,4.1,1.81,8.42,3.14,12.74,4.39,2.55.74,5.28.88,7.93,1.29.07-.36.14-.72.21-1.08-3-.83-6-1.66-9-2.49,10.26,2.61,20.37.27,30.77-1.33ZM266.33,214.24c-.23,1.07-.42,1.98-.53,2.47.94.6,2.19.93,2.48,1.65,1.3,3.19-.34,6.22-3.81,6.49-9.64.77-19.3,1.39-28.96,1.76-4.41.17-4.62-.46-3.5-5.42,5.76,0,11.64.24,17.48-.08,3.84-.21,7.54-4.83,7.95-9.39-11.45,1.05-22.91,2.29-33.96-2.36-1.11,1.9-.78,3.14.77,4.51,5.81,5.1,7.15,10.84,3.66,17.69-1.53,3-4.18,5.43-6.37,8.17,4.31,3.85,26.32,4.32,31.81-.01-1.33-.53-2.43-.96-3.78-1.5,1.61-.48,3.03-.91,4.45-1.34,5.02-1.52,9.93-3.28,13.23-7.69,1.5-2,2.96-3.1,5.22-.37,2.16-5.44,1.14-10.61,1.4-15.9-2.7.48-5.04.89-7.55,1.33ZM230.77,176.96c-1.84.69-3.35,1.76-4.77,1.66-2.55-.18-2.81,1.06-2.84,3-.07,5.79.03,11.6-.4,17.38-.17,2.37.54,3.53,2.46,4.42,8.33,3.85,16.97,4.19,25.75,2.12.7-.17,1.47-1.67,1.54-2.6.11-1.74-.18-3.53-.48-5.26-.16-.9-.48-1.97-1.12-2.55-6.7-6.13-13.48-12.17-20.15-18.16ZM174.23,205.3c10.1,3.1,19.85,1.55,29.32-2.71.74-.33,1.46-1.66,1.47-2.53.04-4.89-.35-9.79-.17-14.67.14-3.89-.01-7.18-4.94-7.6-.28-.02-.58-.2-.81-.38-2.14-1.7-3.74-.81-5.43.87-5.67,5.63-11.43,11.16-17.13,16.77-.46.45-.85,1.13-.97,1.76-.49,2.7-.87,5.41-1.34,8.5ZM184.36,131.5c-5.86-5.8-11.69-11.38-17.28-17.19-1.63-1.69-3-2.37-5.4-1.95-1.72.31-3.66-.38-5.46-.82-1.16-.28-2.23-.92-3.16-1.32,0,4.77,0,9.14,0,13.52s0,8.91,0,13.83c7.58,0,14.84-.05,22.09.02,6.48.06,6.48.12,9.21-6.09ZM152.52,155.09c0,7.77-.24,14.56.09,21.33.19,3.94,3.52,5.47,6.85,6.59,2.8.94,5.51,1.82,7-2.05.37-.95,1.4-1.66,2.17-2.45,4.74-4.85,9.52-9.67,14.21-14.57.73-.76,1.06-1.91,1.57-2.88-1.18-.59-2.3-1.5-3.54-1.7-4.43-.71-8.91-1.09-13.34-1.74-4.69-.69-9.35-1.56-15.01-2.52ZM273.58,136.24c-.05-.26-.11-.52-.16-.78-.62-.12-1.23-.31-1.85-.34-2.79-.13-4.26-1.58-4.25-4.34.02-4.68.19-9.36.18-14.05,0-1.07-.28-2.98-.7-3.06-1.62-.3-3.98-.7-4.92.18-5.9,5.5-11.63,11.2-17.05,17.17-.85.93.06,3.58.41,5.38.09.45,1.15,1.03,1.77,1.02,8.17-.07,16.35-.21,24.52-.4.69-.02,1.37-.51,2.05-.79ZM273.6,163.61c-.26,0-.51,0-.77,0,0,3.33.03,6.67-.01,10-.02,1.37.32,3.19-.41,3.99-1.07,1.17-2.95,1.61-4.48,2.36-.26-1.23-.75-2.46-.73-3.69.09-4.38.51-8.76.51-13.14,0-5.37-.19-5.4-4.88-4.53-1.07.2-2.21.01-3.28.22-3,.58-6.16.87-8.92,2.06-2.06.88-3.65,1.78-5.34-.13-1.68,1.57-1.52,2.7-.05,4.16,5.59,5.56,11.02,11.27,16.59,16.84.57.57,1.82.96,2.57.75,2.49-.7,5.06-1.42,7.26-2.72,1.21-.71,2.37-2.58,2.42-3.96.15-4.06-.28-8.15-.47-12.22ZM141.22,146.86c-.13-6.94-3.04-10.64-8.25-10.51-4.9.12-8.84,4.22-8.77,9.12.08,5.36,4.31,9.77,9.32,9.72,4.56-.05,7.8-3.54,7.7-8.33ZM258.55,198.08c-.01,5.18,3.68,9.07,8.67,9.14,4.43.06,8.91-4.76,8.9-9.55,0-4.31-4.34-8.82-8.51-8.86-4.75-.05-9.04,4.35-9.06,9.28ZM160.73,207.02c4.85-.05,8-3.09,7.95-7.69-.05-4.81-5-10.44-9.06-10.31-4.64.15-8.7,4.15-8.72,8.59-.02,5.23,4.4,9.46,9.83,9.41ZM213.91,77.17c5.27.02,8.83-3.22,8.83-8.03,0-4.89-4.26-9.68-8.73-9.8-4.72-.13-8.75,3.87-8.79,8.73-.06,5.81,3.07,9.08,8.69,9.1ZM285.17,145.97c-.01,5.15,3.79,8.93,8.9,8.88,4.57-.05,8.12-3.78,8.18-8.61.06-5.08-3.63-9.33-8.15-9.39-5.31-.07-8.92,3.62-8.93,9.12ZM266.44,87.95c-4.29.04-8.11,4.22-8.02,8.77.09,4.66,4.43,8.74,9.25,8.71,4.05-.03,7.81-4.15,7.85-8.62.04-4.63-4.34-8.91-9.08-8.87ZM213.97,233.34c5.24.05,9.2-3.32,9.15-7.81-.04-4.2-4.92-8.6-9.6-8.64-4.92-.04-8.3,3.15-8.31,7.86-.02,5.05,3.54,8.53,8.75,8.58ZM160.42,105.32c4.48.07,8.51-4.05,8.53-8.72.02-4.41-4.01-8.53-8.39-8.58-4.18-.05-8.7,4.46-8.72,8.71-.03,4.67,3.82,8.52,8.58,8.59ZM181.48,143.71h-34.1c-.65,5.87-.65,5.74,4.76,5.64,8.18-.16,16.35-.12,24.53-.18,1.36-.01,2.71-.12,4.17-.19.23-1.86.41-3.41.64-5.27ZM211.2,179.7v30.64h5.28v-30.31c-1.74-.11-3.21-.2-5.28-.33ZM279.16,143.97h-33.04c.26,2.13.47,3.86.65,5.33h32.4v-5.33ZM216.11,84.14c-4.71-.52-4.73-.52-4.81,3.37-.16,8.17-.24,16.34-.47,24.51-.06,2.09.61,2.99,2.74,2.64.94-.15,1.89-.21,2.54-.28v-30.24ZM189.2,166.87c-5.95,5.75-11.56,11.12-17.11,16.56-3.42,3.35-3.38,3.39.49,7.25,6.56-6.63,13.11-13.27,19.69-19.92-1.13-1.43-1.92-2.43-3.07-3.89ZM239.96,166.73c-.57.41-1.14.82-1.7,1.23-.75,1.35-3.38,2.25-1.28,4.34,5.92,5.9,11.97,11.68,18.35,17.88,1.34-1.31,2.23-2.17,2.86-2.79-6.36-7.2-12.3-13.93-18.23-20.66ZM258.74,108.37q-3.89-4.3-6.99-1.13c-.91.92-1.93,1.73-2.81,2.68-4.31,4.67-8.59,9.36-12.57,13.7.38.58,1.2,1.81,1.92,2.91,3.5-3.19,6.75-6.2,10.06-9.14,3.41-3.03,6.88-5.98,10.38-9.02ZM172.82,104.74c-2.82,1.75-3.37,3.33-.93,5.33.84.69,1.4,1.69,2.18,2.47,4.78,4.77,9.59,9.51,14.47,14.35,1.71-1.77,4.16-2.76,1.75-5.13-5.77-5.67-11.58-11.3-17.47-17.02ZM174.05,157.03c0,.23,0,.47,0,.7,2.62.15,5.24.29,7.86.44.01-.38.03-.76.04-1.14h-7.9ZM247.46,156.96c.01.25.02.5.03.74,4.31-.27,8.63-.53,12.06-.74h-12.1Z"/>
    <path d="M89.84,139.03c3.31.02,5.83,2.68,5.85,6.2.02,4.22-2.4,7.12-5.95,7.12-4.1,0-6.27-2.46-6.19-7.03.07-4.05,2.33-6.31,6.3-6.29Z"/>
    <path d="M214.5,23.78c-3.77-.09-6.78-3.04-6.71-6.59.07-3.23,3.4-6.44,6.66-6.43,3.57.02,7,3.01,6.92,6.03-.12,4.35-2.8,7.08-6.87,6.98ZM216.39,17.85c.26-.46.51-.92.77-1.38-.87-.37-1.79-1.11-2.59-.99-.63.09-1.44,1.17-1.55,1.91-.09.57.87,1.86,1.22,1.81.76-.1,1.44-.86,2.15-1.35Z"/>
    <path d="M214.53,261.3c4.15.05,6.99,2.41,6.93,5.74-.08,4.14-3.02,7.46-6.63,7.48-3.47.02-7.12-3.35-7-6.45.13-3.51,3.39-6.8,6.7-6.76ZM216.94,268.01c-1.05-1.17-1.73-1.92-2.4-2.66-.57.6-1.7,1.34-1.59,1.75.22.82,1.04,1.59,1.8,2.08.27.17,1.11-.57,2.18-1.17Z"/>
    <path d="M302.54,234.64c-3.14,0-6.35-3.02-6.33-5.97.03-3.84,3.46-7.5,7.06-7.53,2.98-.03,6.13,3.32,6.14,6.52,0,3.5-3.41,6.96-6.87,6.97ZM304.35,227.95c-.64-1.01-1.07-1.69-1.5-2.36-.72.69-1.78,1.27-2.05,2.1-.17.52.86,1.42,1.36,2.15.66-.57,1.32-1.13,2.19-1.89Z"/>
    <path d="M296.73,54.36c.03-3.33,2.4-5.45,6.11-5.46,3.33-.01,6.78,3.54,6.81,7.02.03,3.7-2.37,6.42-5.63,6.39-3.94-.05-7.32-3.73-7.28-7.94ZM303.07,51.94c-1.03,1.69-2.18,2.98-1.95,3.31.64.93,1.86,1.46,2.84,2.15.38-.67,1.17-1.42,1.05-1.99-.2-.97-.97-1.82-1.94-3.47Z"/>
    <path d="M132.19,55.88c-.1,3.84-3.57,7.27-7.28,7.21-3.27-.06-5.42-2.54-5.36-6.2.06-3.95,3.96-7.64,7.85-7.45,2.85.14,4.89,2.88,4.8,6.44ZM125.96,53.11c-1.02,1.09-2.17,1.93-2.04,2.24.41.98,1.3,1.76,2,2.62.47-.65,1.29-1.29,1.3-1.95.02-.79-.65-1.59-1.27-2.91Z"/>
    <path d="M125.02,221.94c3.4-.05,6.99,3.47,7,6.88.01,3.16-2.7,5.64-6.12,5.61-3.38-.03-6.36-3.16-6.34-6.65.02-3.44,2.22-5.79,5.46-5.83ZM125.81,230.12c.45-.21.91-.42,1.36-.63-.42-1.13-.84-2.27-1.25-3.4-.59.38-1.73.97-1.68,1.11.39,1.02,1.02,1.96,1.58,2.92Z"/>
    <path d="M98.39,121.1c-.54,3.29-1.08,6.58-1.62,9.87-.18-.03-.37-.05-.55-.08.51-3.31,1.01-6.62,1.52-9.92l.65.14Z"/>
    <path class="cls-1" d="M253.46,65.31c-3.34-7.19-6.63-14.27-9.96-21.43,2.02-1.28,3.62-1.06,4.52.49,4.63,8.04,9.13,16.16,13.65,24.27.12.22.02.57.02,1.45h-32.54c.23-5.49-1.46-10.77-6.06-14.28-2.29-1.75-5.65-2.81-8.56-2.9-11.88-.36-14.66,8.22-16.2,17.13-9.69,0-19.17.03-28.66-.02-2.72-.01-2.55-1.69-1.64-3.47,2.26-4.45,4.57-8.88,6.89-13.3,1.39-2.65,2.96-5.22,4.19-7.94,1.23-2.72,2.93-3.61,6.15-2.03-3.51,7.23-7.01,14.42-10.49,21.59,3.84,2.09,5.12,1.77,6.7-1.92,2.71-6.31,5.3-12.68,7.86-19.06.74-1.84,2.08-2.66,3.71-1.88.71.34,1.32,2.21,1.04,3.1-1.45,4.67-3.22,9.23-4.83,13.85-.77,2.22-1.43,4.48-2.13,6.67,4.53,2.02,5.04,1.7,6.36-2.36,2.04-6.25,4.22-12.47,6.49-18.64.27-.73,1.48-1.58,2.27-1.59,6.86-.08,13.73.25,20.59-.02,3.01-.12,4.48.29,5.57,3.5,2.04,6.03,4.79,11.83,7.41,17.66,1.21,2.7,2.11,2.83,6.15,1.66-2.12-5.16-4.28-10.27-6.34-15.43-.81-2.03-1.5-4.13-2.04-6.25-.18-.71.28-1.59.45-2.39.96.32,2.17.38,2.83,1.02.82.79,1.21,2.04,1.75,3.11,2.87,5.71,5.73,11.43,8.59,17.15,1.23,2.46,3,3.6,6.27,2.24Z"/>
    <path class="cls-1" d="M174.45,41.58c-.59,1.31-.93,2.35-1.49,3.25-4.59,7.37-9.14,14.75-13.86,22.04-2.23,3.44-2.28,5.44,1.63,6.74,5.32,1.77,10.97,2.9,16.56,3.41,6.64.6,13.37.32,20.06.3,3.99-.01,8.1,3.95,8,7.9-.24,9.19-.5,18.38-.65,27.56-.03,1.64-.36,2.44-2.12,2.91-2.17.58-4.19,1.73-6.95,2.93-6.56-6.31-13.51-13.01-20.46-19.7.12-.31.24-.61.36-.92,1.92.13,3.84.3,5.76.39,4.69.2,9.38.43,14.07.52,4.14.09,2.15-3.25,2.53-5.07.47-2.31-1.48-1.73-2.8-1.76-6.29-.13-12.58-.21-18.86-.5-.98-.04-2.23-.86-2.81-1.7-5.61-8.09-10.17-9.58-19.56-6.23-.27.1-.57.09-1.15.17-.08-.79-.2-1.51-.21-2.24,0-1.6.46-3.32.02-4.77-1.65-5.53,1.13-9.32,4.13-13.52,4.45-6.25,8.19-13,12.18-19.58,1.22-2.02,2.69-3.13,5.63-2.15Z"/>
    <path class="cls-1" d="M255.42,41.5c.93.52,2.25.8,2.74,1.59,4.22,6.79,7.71,14.12,12.58,20.38,4.31,5.55,3.97,11.26,3.49,17.36-.05.57-.23,1.12-.36,1.7-1.98-.31-3.81-.81-5.65-.85-6.06-.14-10.85,2.39-14.21,7.43-1.04,1.56-2.26,2.3-4.15,2.31-5.29.01-10.58.15-15.88.24-1.17.02-2.34,0-3.78,0,0,1.04.07,1.82-.01,2.59-.3,3.01.8,4.32,4.04,4.18,5.08-.21,10.18-.04,15.27-.02.76,0,1.52.07,3.18.16-7.77,7.26-14.96,13.98-22,20.56-2.15-1-4.34-1.88-6.38-3.02-.7-.39-1.44-1.43-1.45-2.19-.13-10.1-.17-20.19-.14-30.29,0-2.63,4.07-6.24,6.8-6.31,8.79-.23,17.58-.27,26.35-.8,3.53-.21,7.09-1.22,10.47-2.38,3.7-1.26,3.87-2.74,1.88-6.13-4.04-6.88-7.97-13.83-11.84-20.81-.8-1.44-1.16-3.13-1.73-4.7.26-.33.52-.67.79-1ZM259.69,81.91c4.49-.32,9.76-1.55,13.91-6.78-5.32,2.59-10.07,4.91-13.91,6.78Z"/>
    <path class="cls-1" d="M239.71,147.28c.01,14.1-11.65,25.73-25.77,25.68-14.77-.05-26.49-11.4-26.51-25.68-.02-15.19,11.26-26.63,26.36-26.75,13.99-.11,25.91,12.19,25.92,26.75ZM214.1,128.81c-10.71-.09-18.98,7.74-19.12,18.09-.14,10.67,8.26,19.02,19.23,19.12,9.51.08,18.35-8.88,18.53-18.79.19-10.48-7.75-18.32-18.65-18.41Z"/>
    <path class="cls-1" d="M205.73,237.53c-10.4,1.61-20.51,3.94-30.77,1.33,3,.83,6,1.66,9,2.49-.07.36-.14.72-.21,1.08-2.65-.41-5.37-.56-7.93-1.29-4.31-1.24-8.64-2.58-12.74-4.39-6.75-2.98-10.8-8-10.52-15.81.11-2.88.02-5.77.02-9.07,1.31.33,2.43.55,3.51.89,4.05,1.3,7.8,1.07,11.38-1.54.87-.63,2.47-.76,3.58-.48,10.39,2.58,20.72,2.86,31.08-.15.94-.27,2.04.01,3.07.04-.57.9-.96,2.04-1.75,2.67-6.25,4.95-6.39,17.13-.16,22.37.75.63,1.56,1.2,2.43,1.86ZM159.59,216.32c-.83,5.5-.48,5.84,4.23,7.44,9.02,3.08,18.37,3.38,27.74,3.75,2.09.08,4.05.43,3.84-2.82-.24-3.61-.23-3.46-4.08-3.56-6.84-.17-13.72-.4-20.5-1.26-3.75-.47-7.33-2.27-11.23-3.55Z"/>
    <path class="cls-1" d="M266.33,214.24c2.51-.44,4.84-.85,7.55-1.33-.26,5.3.75,10.46-1.4,15.9-2.26-2.73-3.73-1.63-5.22.37-3.3,4.42-8.21,6.17-13.23,7.69-1.42.43-2.84.85-4.45,1.34,1.36.54,2.45.97,3.78,1.5-5.49,4.33-27.49,3.87-31.81.01,2.19-2.74,4.84-5.17,6.37-8.17,3.5-6.85,2.15-12.58-3.66-17.69-1.56-1.37-1.89-2.61-.77-4.51,11.05,4.65,22.51,3.4,33.96,2.36-.41,4.56-4.11,9.18-7.95,9.39-5.84.32-11.72.08-17.48.08-1.12,4.96-.91,5.59,3.5,5.42,9.66-.37,19.32-.99,28.96-1.76,3.47-.28,5.12-3.3,3.81-6.49-.3-.72-1.54-1.06-2.48-1.65.1-.49.3-1.41.53-2.47Z"/>
    <path class="cls-1" d="M230.77,176.96c6.67,5.99,13.45,12.03,20.15,18.16.63.58.96,1.65,1.12,2.55.31,1.74.6,3.52.48,5.26-.06.93-.83,2.43-1.54,2.6-8.79,2.07-17.42,1.73-25.75-2.12-1.92-.89-2.63-2.05-2.46-4.42.42-5.77.33-11.58.4-17.38.02-1.94.29-3.17,2.84-3,1.42.1,2.93-.98,4.77-1.66Z"/>
    <path class="cls-1" d="M174.23,205.3c.48-3.09.85-5.81,1.34-8.5.11-.63.51-1.3.97-1.76,5.69-5.6,11.46-11.13,17.13-16.77,1.69-1.68,3.29-2.57,5.43-.87.23.18.53.35.81.38,4.93.42,5.08,3.71,4.94,7.6-.17,4.88.21,9.78.17,14.67,0,.87-.73,2.2-1.47,2.53-9.47,4.26-19.21,5.81-29.32,2.71ZM192.69,200.91c.13.44.26.88.39,1.32,2.28-.1,4.62.06,6.82-.42.9-.2,1.5-1.77,2.24-2.72-.99-.57-2.23-1.84-2.92-1.59-2.29.84-4.38,2.23-6.54,3.41Z"/>
    <path class="cls-1" d="M184.36,131.5c-2.73,6.21-2.73,6.15-9.21,6.09-7.25-.07-14.51-.02-22.09-.02,0-4.93,0-9.38,0-13.83s0-8.75,0-13.52c.93.4,2,1.03,3.16,1.32,1.8.44,3.74,1.13,5.46.82,2.4-.43,3.77.25,5.4,1.95,5.59,5.81,11.42,11.39,17.28,17.19Z"/>
    <path class="cls-1" d="M152.52,155.09c5.66.96,10.32,1.83,15.01,2.52,4.44.66,8.92,1.04,13.34,1.74,1.24.2,2.37,1.11,3.54,1.7-.51.97-.84,2.12-1.57,2.88-4.69,4.9-9.47,9.72-14.21,14.57-.77.79-1.8,1.49-2.17,2.45-1.49,3.86-4.21,2.99-7,2.05-3.33-1.12-6.66-2.66-6.85-6.59-.32-6.76-.09-13.56-.09-21.33Z"/>
    <path class="cls-1" d="M273.58,136.24c-.68.27-1.36.77-2.05.79-8.17.19-16.35.33-24.52.4-.61,0-1.68-.57-1.77-1.02-.35-1.8-1.25-4.45-.41-5.38,5.42-5.97,11.15-11.67,17.05-17.17.94-.87,3.3-.47,4.92-.18.42.08.7,1.99.7,3.06,0,4.68-.17,9.36-.18,14.05,0,2.76,1.46,4.21,4.25,4.34.62.03,1.24.22,1.85.34.05.26.11.52.16.78Z"/>
    <path class="cls-1" d="M273.6,163.61c.2,4.08.62,8.16.47,12.22-.05,1.39-1.22,3.25-2.42,3.96-2.19,1.3-4.77,2.02-7.26,2.72-.74.21-2-.18-2.57-.75-5.57-5.57-11-11.29-16.59-16.84-1.47-1.46-1.63-2.59.05-4.16,1.69,1.9,3.27,1.01,5.34.13,2.76-1.18,5.92-1.48,8.92-2.06,1.07-.21,2.21-.02,3.28-.22,4.69-.87,4.88-.84,4.88,4.53,0,4.38-.42,8.76-.51,13.14-.02,1.22.47,2.46.73,3.69,1.53-.75,3.41-1.19,4.48-2.36.73-.79.39-2.62.41-3.99.04-3.33.01-6.67.01-10,.26,0,.51,0,.77,0Z"/>
    <path class="cls-1" d="M141.22,146.86c.09,4.79-3.14,8.28-7.7,8.33-5,.05-9.23-4.36-9.32-9.72-.08-4.89,3.87-8.99,8.77-9.12,5.21-.13,8.12,3.57,8.25,10.51Z"/>
    <path class="cls-1" d="M258.55,198.08c.01-4.93,4.31-9.33,9.06-9.28,4.17.04,8.5,4.55,8.51,8.86,0,4.8-4.48,9.61-8.9,9.55-4.99-.06-8.68-3.96-8.67-9.14Z"/>
    <path class="cls-1" d="M160.73,207.02c-5.43.05-9.85-4.18-9.83-9.41.02-4.43,4.08-8.44,8.72-8.59,4.06-.13,9.01,5.5,9.06,10.31.05,4.59-3.1,7.64-7.95,7.69Z"/>
    <path class="cls-1" d="M213.91,77.17c-5.61-.02-8.74-3.3-8.69-9.1.05-4.86,4.07-8.86,8.79-8.73,4.46.12,8.73,4.91,8.73,9.8,0,4.81-3.56,8.05-8.83,8.03Z"/>
    <path class="cls-1" d="M285.17,145.97c.01-5.5,3.63-9.19,8.93-9.12,4.52.06,8.21,4.31,8.15,9.39-.06,4.83-3.6,8.56-8.18,8.61-5.12.05-8.91-3.74-8.9-8.88Z"/>
    <path class="cls-1" d="M266.44,87.95c4.74-.04,9.12,4.24,9.08,8.87-.04,4.47-3.8,8.59-7.85,8.62-4.82.03-9.16-4.06-9.25-8.71-.09-4.55,3.73-8.73,8.02-8.77Z"/>
    <path class="cls-1" d="M213.97,233.34c-5.22-.05-8.77-3.53-8.75-8.58.02-4.71,3.39-7.9,8.31-7.86,4.67.04,9.55,4.44,9.6,8.64.05,4.48-3.91,7.86-9.15,7.81Z"/>
    <path class="cls-1" d="M160.42,105.32c-4.76-.07-8.61-3.93-8.58-8.59.02-4.25,4.54-8.76,8.72-8.71,4.38.05,8.41,4.17,8.39,8.58-.02,4.68-4.05,8.79-8.53,8.72Z"/>
    <path class="cls-1" d="M181.48,143.71c-.23,1.86-.41,3.41-.64,5.27-1.46.07-2.82.18-4.17.19-8.18.06-16.36.02-24.53.18-5.4.11-5.4.23-4.76-5.64h34.1Z"/>
    <path class="cls-1" d="M211.2,179.7c2.07.13,3.54.22,5.28.33v30.31h-5.28v-30.64Z"/>
    <path class="cls-1" d="M279.16,143.97v5.33h-32.4c-.18-1.47-.39-3.2-.65-5.33h33.04Z"/>
    <path class="cls-1" d="M216.11,84.14v30.24c-.65.07-1.6.12-2.54.28-2.12.35-2.79-.55-2.74-2.64.22-8.17.31-16.34.47-24.51.07-3.89.09-3.89,4.81-3.37Z"/>
    <path class="cls-1" d="M189.2,166.87c1.15,1.45,1.94,2.46,3.07,3.89-6.58,6.65-13.13,13.29-19.69,19.92-3.86-3.86-3.91-3.9-.49-7.25,5.55-5.44,11.16-10.81,17.11-16.56Z"/>
    <path class="cls-1" d="M239.96,166.73c5.94,6.73,11.88,13.46,18.23,20.66-.63.62-1.52,1.48-2.86,2.79-6.38-6.2-12.43-11.97-18.35-17.88-2.1-2.09.53-2.99,1.28-4.34.57-.41,1.14-.82,1.7-1.23Z"/>
    <path class="cls-1" d="M258.74,108.37c-3.5,3.04-6.97,5.99-10.38,9.02-3.31,2.94-6.56,5.96-10.06,9.14-.72-1.09-1.54-2.33-1.92-2.91,3.98-4.34,8.26-9.04,12.57-13.7.88-.95,1.9-1.76,2.81-2.68q3.11-3.16,6.99,1.13Z"/>
    <path class="cls-1" d="M172.82,104.74c5.88,5.73,11.7,11.35,17.47,17.02,2.41,2.37-.04,3.35-1.75,5.13-4.89-4.84-9.69-9.58-14.47-14.35-.78-.77-1.34-1.78-2.18-2.47-2.44-2-1.89-3.58.93-5.33Z"/>
    <path class="cls-1" d="M174.05,157.03h7.9c-.01.38-.03.76-.04,1.14-2.62-.15-5.24-.29-7.86-.44,0-.23,0-.47,0-.7Z"/>
    <path class="cls-1" d="M247.46,156.96h12.1c-3.44.21-7.75.48-12.06.74-.01-.25-.02-.5-.03-.74Z"/>
    <path class="cls-1" d="M216.39,17.85c-.71.49-1.39,1.25-2.15,1.35-.35.05-1.31-1.24-1.22-1.81.11-.74.92-1.82,1.55-1.91.8-.11,1.72.62,2.59.99-.26.46-.51.92-.77,1.38Z"/>
    <path class="cls-1" d="M216.94,268.01c-1.07.6-1.91,1.34-2.18,1.17-.77-.48-1.58-1.26-1.8-2.08-.11-.41,1.02-1.16,1.59-1.75.67.75,1.34,1.49,2.4,2.66Z"/>
    <path class="cls-1" d="M304.35,227.95c-.87.75-1.53,1.32-2.19,1.89-.49-.73-1.52-1.63-1.36-2.15.27-.83,1.32-1.41,2.05-2.1.43.67.86,1.35,1.5,2.36Z"/>
    <path class="cls-1" d="M303.07,51.94c.97,1.65,1.74,2.5,1.94,3.47.12.57-.67,1.32-1.05,1.99-.99-.69-2.2-1.22-2.84-2.15-.23-.33.92-1.62,1.95-3.31Z"/>
    <path class="cls-1" d="M125.96,53.11c.62,1.32,1.29,2.12,1.27,2.91-.02.66-.84,1.3-1.3,1.95-.7-.86-1.59-1.64-2-2.62-.13-.31,1.02-1.16,2.04-2.24Z"/>
    <path class="cls-1" d="M125.81,230.12c-.55-.96-1.18-1.9-1.58-2.92-.05-.13,1.09-.73,1.68-1.11.42,1.13.84,2.27,1.25,3.4-.45.21-.91.42-1.36.63Z"/>
    <path d="M259.69,81.91c3.84-1.87,8.59-4.19,13.91-6.78-4.15,5.23-9.43,6.46-13.91,6.78Z"/>
    <path d="M214.1,128.81c10.9.09,18.84,7.93,18.65,18.41-.18,9.92-9.02,18.88-18.53,18.79-10.97-.1-19.37-8.44-19.23-19.12.13-10.35,8.41-18.18,19.12-18.09ZM201.19,146.98c0,7.22,5.54,12.88,12.61,12.89,6.86,0,12.67-5.95,12.64-12.96-.03-6.75-5.87-12.64-12.62-12.72-7.01-.08-12.63,5.62-12.63,12.8Z"/>
    <path d="M159.59,216.32c3.9,1.28,7.48,3.07,11.23,3.55,6.78.86,13.66,1.09,20.5,1.26,3.85.1,3.84-.06,4.08,3.56.21,3.25-1.74,2.9-3.84,2.82-9.37-.37-18.72-.67-27.74-3.75-4.7-1.61-5.06-1.94-4.23-7.44Z"/>
    <path d="M192.69,200.91c2.16-1.18,4.25-2.57,6.54-3.41.68-.25,1.93,1.02,2.92,1.59-.74.95-1.34,2.52-2.24,2.72-2.2.48-4.54.32-6.82.42-.13-.44-.26-.88-.39-1.32Z"/>
    <path class="cls-1" d="M201.19,146.98c0-7.18,5.62-12.88,12.63-12.8,6.75.08,12.6,5.97,12.62,12.72.03,7.01-5.79,12.97-12.64,12.96-7.07,0-12.61-5.67-12.61-12.89ZM213.76,151.9c2.94.13,5.04-1.68,5.27-4.52.18-2.31-2.4-4.76-5.09-4.84-2.5-.07-4.46,1.99-4.61,4.85-.14,2.61,1.61,4.39,4.43,4.51Z"/>
    <path d="M213.76,151.9c-2.83-.13-4.57-1.9-4.43-4.51.15-2.86,2.11-4.92,4.61-4.85,2.69.08,5.27,2.53,5.09,4.84-.23,2.84-2.33,4.65-5.27,4.52Z"/>
  </g>
  <g>
    <path d="M57.87,313.62c-.02,3.09-1.1,5.95-3.23,8.58l-22.61,27.77c-3.05,3.75-6.48,5.62-10.3,5.62h-9l3.55-40.61H0l5.24-8.86h17.02c1.9,0,3.49.59,4.78,1.76,1.29,1.17,1.93,2.66,1.93,4.46,0,.23-.01.47-.04.7l-3.66,35.75,21.52-26.82c-2.2-.42-4.03-1.4-5.47-2.94s-2.16-3.35-2.16-5.43c0-2.32.91-4.31,2.74-5.96s4.03-2.48,6.61-2.48,4.82.83,6.64,2.5,2.73,3.64,2.71,5.94Z"/>
    <path d="M97.31,349.97c-1.12,3.75-4,5.62-8.61,5.62h-13.32c-3.8,0-5.7-1.22-5.7-3.66-2.55,2.91-5.7,4.36-9.42,4.36-2.74,0-4.97-.84-6.68-2.53s-2.57-3.89-2.57-6.61c0-4.9,1.88-8.77,5.62-11.6,3.4-2.58,7.61-3.87,12.62-3.87h20.07l-6.61,18.28h14.59ZM74.64,337.31h-7.77l-2.46,8.19c-.14.52-.21.98-.21,1.41,0,2.04,1.99,3.06,5.98,3.06l4.46-12.66Z"/>
    <path d="M143.89,349.97c-.49,1.95-1.57,3.42-3.23,4.43-1.31.8-2.71,1.2-4.18,1.2h-14.7c-3.45,0-5.17-1.1-5.17-3.3-1.83,2.2-4.3,3.3-7.42,3.3h-6.19c-1.9,0-3.38-.49-4.43-1.48-.98-.91-1.48-2.12-1.48-3.62,0-.84.16-1.71.49-2.6l5.91-16.21h12.76l-6.57,18.28h7.14l6.54-18.28h12.62l-6.4,18.28h14.31Z"/>
    <path d="M170.96,349.97c-.59,2.06-1.93,3.59-4.04,4.57-1.48.7-3.06,1.05-4.75,1.05h-13.54c-3.47,0-5.2-1.18-5.2-3.55,0-.61.13-1.3.39-2.07l13.04-36.77h12.45l-13.11,36.77h14.77Z"/>
    <path d="M201.94,349.97c-1.1,3.75-4.03,5.62-8.79,5.62h-17.93c-3.47,0-5.2-1.22-5.2-3.66,0-.61.13-1.27.39-1.97l4.46-12.66h-5.77l2.21-5.62c4.1-1.05,7.15-2.4,9.14-4.04,2.25-1.85,4.65-5.2,7.21-10.05h6.86l-4.96,14.1h9.07c-1.45,3.75-4.41,5.62-8.86,5.62h-2.32l-4.39,12.66h18.88Z"/>
    <path d="M266.17,317.2c0,3.45-1.82,6.67-5.45,9.67-2.18,1.8-5.5,3.8-9.95,5.98,1.8,3.12,2.71,5.94,2.71,8.47,0,5.23-3.38,9.09-10.12,11.6-4.83,1.78-10.45,2.67-16.88,2.67h-18.28l12.69-36.07h12.66l-10.79,30.45h1.79c4.1,0,7.57-.47,10.41-1.41,4.2-1.43,6.29-3.76,6.29-7,0-1.03-.47-2.27-1.41-3.71s-1.41-2.49-1.41-3.15c0-.33.02-.56.07-.7.47-1.03,1.75-2.04,3.83-3.02,2.88-1.38,4.99-2.66,6.33-3.83,2.25-1.95,3.38-4.2,3.38-6.75,0-3.61-2.75-5.41-8.26-5.41h-41.13l5.41-8.86h41.03c5.39,0,9.43.73,12.13,2.18,3.3,1.78,4.96,4.75,4.96,8.89Z"/>
    <path d="M288,349.97c-.61,2.06-1.88,3.59-3.8,4.57-1.38.7-2.88,1.05-4.5,1.05h-13.89c-3.35,0-5.03-1.41-5.03-4.22,0-.8.16-1.65.49-2.57l6.12-17.12h12.76l-6.5,18.28h14.34ZM285.47,317.27c0,2.34-.91,4.34-2.72,5.98s-4,2.46-6.56,2.46-4.81-.82-6.63-2.46-2.72-3.63-2.72-5.98.91-4.3,2.72-5.94,4.03-2.46,6.63-2.46,4.74.82,6.56,2.46,2.72,3.62,2.72,5.94Z"/>
    <path d="M351.63,331.69c-1.55,3.75-4.14,5.62-7.77,5.62h-18.98c-.91,6.7-4.37,11.64-10.37,14.8-4.41,2.32-9.55,3.48-15.43,3.48h-6.4c-1.15,0-2.16-.28-3.02-.84-1.15-.75-1.72-1.89-1.72-3.41,0-.87.19-1.85.56-2.95l12.55-35.19h12.66l-13.11,36.7c5.04.12,8.62-1.9,10.76-6.05-2.18-1.36-3.27-3.21-3.27-5.55,0-1.83.71-3.39,2.13-4.68s3.11-1.93,5.08-1.93h36.35Z"/>
    <path d="M357.33,349.97c-.59,2.06-1.93,3.59-4.04,4.57-1.48.7-3.06,1.05-4.75,1.05h-13.54c-3.47,0-5.2-1.18-5.2-3.55,0-.61.13-1.3.39-2.07l13.04-36.77h12.45l-13.11,36.77h14.77Z"/>
    <path d="M383.84,349.97c-.61,2.06-1.88,3.59-3.8,4.57-1.38.7-2.88,1.05-4.5,1.05h-13.89c-3.35,0-5.03-1.41-5.03-4.22,0-.8.16-1.65.49-2.57l6.12-17.12h12.76l-6.5,18.28h14.34ZM381.3,317.27c0,2.34-.91,4.34-2.72,5.98s-4,2.46-6.56,2.46-4.81-.82-6.63-2.46-2.72-3.63-2.72-5.98.91-4.3,2.72-5.94,4.03-2.46,6.63-2.46,4.74.82,6.56,2.46,2.72,3.62,2.72,5.94Z"/>
    <path d="M443.67,331.69c-.94,3.75-3.75,5.62-8.44,5.62h-22.01c.77.52,1.41,1.46,1.9,2.83s.69,2.56.6,3.57c-.33,3.91-2.05,6.98-5.17,9.21-2.98,2.13-6.84,3.21-11.6,3.23-5.53.05-9.79-1.04-12.76-3.27-2.65-1.97-3.97-4.56-3.97-7.77,0-.63.06-1.27.18-1.9.61-3.54,2.37-6.32,5.27-8.33,3.09-2.13,7.22-3.2,12.38-3.2h43.63ZM405.35,337.31h-8.05l-3.16,9c-.16.47-.25.91-.25,1.34,0,2.02,1.88,3.02,5.62,3.02.45,0,.83-.01,1.16-.04l4.68-13.32Z"/>
  </g>
</svg>